<svg width="696" height="540" viewBox="0 0 696 540" fill="none" xmlns="http://www.w3.org/2000/svg">
<g clip-path="url(#clip0_40_3)">
<path fill="#a932c6" fill-opacity="0.1" d="M0.817693 0.109009H695.819V380.42C680.11 399.04 664.889 419.308 650.533 438.305C598.592 507.056 520.158 549.295 443.786 536.983C419.376 533.051 392.875 521.015 382.802 493.869C367.95 453.849 396.522 411.462 406.338 369.242C413.502 338.393 409.846 303.308 393.88 277.709C377.913 252.11 349.239 237.91 323.585 246.059C297.932 254.209 278.153 286.218 281.643 317.987C283.356 333.586 290.032 347.905 291.828 363.477C293.623 379.049 288.043 398.248 275.253 401.232C269.663 402.54 263.991 400.44 258.614 398.258C193.411 371.81 132.823 328.954 81.82 273.225C58.6621 247.92 32.7229 213.673 32.3177 173.469C32.0598 152.759 40.4389 133.108 51.3966 117.168C62.3543 101.228 75.9083 88.2722 88.486 74.2017C93.5412 68.5383 98.882 61.2365 97.6939 53.0219C96.0822 41.8333 84.3517 38.4172 74.9781 37.4962L42.9807 34.2827C28.7637 32.8551 12.5481 30.0285 4.823 15.562C2.31519 10.7883 0.944787 5.49976 0.817693 0.109009Z"/>
</g>
<defs>
<clipPath id="clip0_40_3">
<rect width="695" height="539" fill="white" transform="matrix(-1 0 0 1 695.819 0.109009)"/>
</clipPath>
</defs>
</svg>
